<svg width="40" height="40" viewBox="0 0 40 40" fill="none" xmlns="http://www.w3.org/2000/svg">
<path d="M24.4587 6.25287H15.5413C15.3689 6.25287 15.2096 6.34502 15.1233 6.49432L10.6647 14.2219C10.5784 14.3712 10.5784 14.5555 10.6647 14.7048L15.1233 22.4324C15.2096 22.5819 15.3689 22.6741 15.5413 22.6741H24.4587C24.6313 22.6741 24.7906 22.5819 24.8769 22.4324L29.3354 14.7048C29.4217 14.5555 29.4217 14.3712 29.3354 14.2219L24.8769 6.49432C24.7906 6.34502 24.6313 6.25287 24.4587 6.25287ZM24.1801 21.708H15.82L11.64 14.4633L15.82 7.21891H24.1801L28.3599 14.4633L24.1801 21.708Z" fill="#F9F9F9"/>
<path d="M29.9342 17.2068C30.1652 17.3403 30.4603 17.261 30.5937 17.0301L31.9353 14.7048C32.0216 14.5555 32.0216 14.3712 31.9353 14.2219L26.1766 4.24145C26.0903 4.09215 25.931 4 25.7587 4H14.2413C14.069 4 13.9097 4.09215 13.8234 4.24145L8.06473 14.2219C7.97842 14.3714 7.97842 14.5555 8.06473 14.705L13.8234 24.6854C13.9097 24.8347 14.069 24.9269 14.2413 24.9269H18.3982V27.3089H9.17862C8.91216 27.3089 8.69603 27.5251 8.69603 27.7918V36.5169C8.69603 36.7837 8.91216 37 9.17862 37H30.8214C31.0881 37 31.304 36.7837 31.304 36.5169V32.1544C31.304 31.8876 31.0881 31.6713 30.8214 31.6713C30.5547 31.6713 30.3385 31.8876 30.3385 32.1544V36.034H9.66146V28.2749H30.3385V30.139C30.3385 30.4059 30.5547 30.6222 30.8214 30.6222C31.0881 30.6222 31.304 30.4059 31.304 30.139V27.7918C31.304 27.5251 31.0881 27.3089 30.8214 27.3089H21.6018V24.9269H25.7587C25.931 24.9269 26.0903 24.8347 26.1766 24.6854L29.5668 18.8099C29.6999 18.5787 29.6209 18.2834 29.39 18.15C29.159 18.0165 28.8638 18.0958 28.7307 18.3267L25.4799 23.9608H14.5201L9.04023 14.4633L14.5201 4.96604H25.4799L30.9598 14.4633L29.7576 16.547C29.6242 16.7781 29.7032 17.0734 29.9342 17.2068ZM20.6363 24.9269V27.3089H19.3637V24.9269H20.6363Z" fill="#F9F9F9"/>
<path d="M22.7408 9.23006H17.2592C17.0866 9.23006 16.9273 9.32196 16.841 9.47151L14.1002 14.2219C14.0139 14.3715 14.0139 14.5555 14.1002 14.7051L16.841 19.4554C16.9273 19.6047 17.0866 19.6969 17.2592 19.6969H22.7408C22.9134 19.6969 23.0727 19.6047 23.159 19.4554L25.8998 14.7051C25.9861 14.5555 25.9861 14.3715 25.8998 14.2219L23.159 9.47151C23.0727 9.32196 22.9134 9.23006 22.7408 9.23006ZM22.4623 18.7308H17.5377L15.0754 14.4634L17.5377 10.1961H22.4623L24.9246 14.4634L22.4623 18.7308Z" fill="#F9F9F9"/>
<path d="M15.6835 29.9313C15.4168 29.9313 15.2006 30.1476 15.2006 30.4142V33.8947C15.2006 34.1613 15.4168 34.3776 15.6835 34.3776H24.3163C24.583 34.3776 24.7992 34.1613 24.7992 33.8947V30.4142C24.7992 30.1476 24.583 29.9313 24.3163 29.9313H15.6835ZM23.8335 33.4116H16.1661V30.8974H23.8335V33.4116Z" fill="#F9F9F9"/>
<path d="M18.2751 15.9483C18.2751 16.2626 18.5265 16.5172 18.8367 16.5172H21.1255C21.4354 16.5172 21.6868 16.2626 21.6868 15.9483C21.6868 15.634 21.4354 15.3793 21.1255 15.3793H18.8367C18.5265 15.3793 18.2751 15.634 18.2751 15.9483Z" fill="#F9F9F9"/>
<path d="M21.6868 12.5346C21.6868 12.2203 21.4354 11.9655 21.1252 11.9655H18.8364C18.5265 11.9655 18.2751 12.2203 18.2751 12.5346C18.2751 12.849 18.5265 13.1034 18.8364 13.1034H21.1252C21.4354 13.1034 21.6868 12.849 21.6868 12.5346Z" fill="#F9F9F9"/>
</svg>
