<svg width="40" height="40" viewBox="0 0 40 40" fill="none" xmlns="http://www.w3.org/2000/svg">
<path d="M28.9687 6.79922C28.9643 6.70738 28.9409 6.61747 28.8998 6.53524C28.8587 6.45301 28.801 6.38028 28.7302 6.32171C26.5177 4.4855 23.8075 3.35369 20.9477 3.07169C20.4739 3.0245 19.9921 3.00091 19.5105 3.0005C19.507 3.0005 19.5035 3 19.5 3C19.4964 3 19.4931 3.0005 19.4895 3.0005C19.0077 3.0005 18.526 3.0245 18.0525 3.07169C15.9037 3.28288 13.8295 3.97407 11.9827 5.09438C10.1359 6.21468 8.56364 7.73556 7.38163 9.54499L7.3766 9.55234C5.67767 12.1457 4.85242 15.2156 5.02168 18.3125C5.19093 21.4095 6.3458 24.3708 8.31721 26.763C8.37564 26.834 8.44824 26.8919 8.53035 26.9331C8.61245 26.9743 8.70224 26.9979 8.79397 27.0023C8.80444 27.0028 8.81482 27.003 8.82528 27.003C9.00004 27.003 9.16766 26.9335 9.29126 26.8097L28.7767 7.29719C28.8415 7.23216 28.8921 7.15427 28.9252 7.06852C28.9583 6.98276 28.9731 6.89104 28.9687 6.79922ZM17.3625 16.86H13.3164C13.3723 15.1754 13.6471 13.5052 14.1337 11.8915C15.6951 12.0943 17.2666 12.2087 18.8409 12.2341V15.3797L17.3625 16.86ZM6.33648 16.86C6.44138 14.6766 7.08926 12.5539 8.22131 10.6848C9.73228 11.1097 11.266 11.4487 12.8152 11.7001C12.3267 13.3787 12.052 15.1125 11.9977 16.86H6.33648ZM18.4295 4.36381C18.5662 4.35276 18.7033 4.3431 18.8409 4.33634V10.9141C17.4121 10.8903 15.9856 10.791 14.5674 10.6164C15.4414 8.30298 16.7527 6.18002 18.4295 4.36381ZM16.0445 18.18L13.5606 20.6673C13.4265 19.8442 13.3451 19.0135 13.3169 18.18H16.0445ZM20.1591 12.2342C20.7907 12.2241 21.4229 12.1995 22.0557 12.1605L20.1591 14.0597V12.2342ZM23.4937 10.7204C22.3907 10.8306 21.2728 10.8956 20.1591 10.9139V4.3365C20.2968 4.34327 20.4341 4.353 20.571 4.36398C22.0997 6.02209 23.3264 7.93568 24.1954 10.0179L23.4937 10.7204ZM16.427 4.68053C15.0589 6.41156 13.9791 8.35259 13.2293 10.4286C11.8066 10.2054 10.3969 9.90616 9.00612 9.53212C10.8422 7.10121 13.4659 5.38592 16.427 4.68053ZM8.88592 25.3485C7.35282 23.2608 6.46593 20.7681 6.33541 18.18H11.9977C12.0365 19.3965 12.1815 20.6072 12.4312 21.7983L8.88592 25.3485ZM25.198 9.01344C24.5045 7.46608 23.6226 6.01053 22.5723 4.67995C24.2867 5.08935 25.9008 5.8414 27.3178 6.89096L25.198 9.01344Z" fill="#F9F9F9"/>
<path d="M31.6237 9.55287C31.3335 9.11084 31.0194 8.68497 30.6828 8.27717C30.6244 8.20628 30.5518 8.14841 30.4696 8.10726C30.3875 8.06611 30.2978 8.0426 30.206 8.03823C30.1143 8.03385 30.0227 8.04872 29.9371 8.08186C29.8514 8.11501 29.7736 8.16571 29.7087 8.23072L10.2233 27.7429C10.1584 27.8079 10.1077 27.8857 10.0746 27.9715C10.0415 28.0573 10.0267 28.149 10.031 28.2408C10.0354 28.3327 10.0588 28.4226 10.0999 28.5048C10.141 28.587 10.1988 28.6598 10.2695 28.7183C12.482 30.5545 15.1922 31.6864 18.052 31.9684C18.9716 32.0591 19.8978 32.0632 20.8182 31.9806V35.3401C20.8182 35.4728 20.8582 35.6025 20.933 35.7122C21.0077 35.8218 21.1138 35.9063 21.2373 35.9547C21.3608 36.003 21.4959 36.013 21.6251 35.9832C21.7544 35.9534 21.8716 35.8853 21.9615 35.7877L27.8725 29.3753C30.9407 27.2018 33.0466 23.9205 33.7463 20.2228C34.4461 16.525 33.6851 12.6998 31.6237 9.55287ZM27.0572 28.3358C27.0187 28.3629 26.9832 28.394 26.9512 28.4286L22.1364 33.652V31.2389C22.1364 31.1443 22.1161 31.0509 22.0769 30.9648C22.0377 30.8788 21.9804 30.8022 21.9091 30.7402C21.8378 30.6783 21.7539 30.6324 21.6634 30.6057C21.5728 30.579 21.4775 30.5721 21.384 30.5855C21.1845 30.6141 20.9991 30.6367 20.8171 30.6548C19.9411 30.7415 19.0586 30.7415 18.1826 30.6548C15.8296 30.4229 13.5832 29.557 11.6823 28.1491L30.1141 9.69155C30.2561 9.88405 30.3921 10.0795 30.5222 10.278C32.4021 13.1484 33.0917 16.6392 32.4449 20.0102C31.798 23.3812 29.8656 26.3674 27.0572 28.3358Z" fill="#F9F9F9"/>
<path d="M19.5 25.4401C20.228 25.4401 20.8182 24.8491 20.8182 24.1201C20.8182 23.3911 20.228 22.8001 19.5 22.8001C18.772 22.8001 18.1818 23.3911 18.1818 24.1201C18.1818 24.8491 18.772 25.4401 19.5 25.4401Z" fill="#F9F9F9"/>
<path d="M23.4545 25.4401C24.1825 25.4401 24.7727 24.8491 24.7727 24.1201C24.7727 23.3911 24.1825 22.8001 23.4545 22.8001C22.7265 22.8001 22.1363 23.3911 22.1363 24.1201C22.1363 24.8491 22.7265 25.4401 23.4545 25.4401Z" fill="#F9F9F9"/>
<path d="M27.409 25.4401C28.137 25.4401 28.7272 24.8491 28.7272 24.1201C28.7272 23.3911 28.137 22.8001 27.409 22.8001C26.681 22.8001 26.0909 23.3911 26.0909 24.1201C26.0909 24.8491 26.681 25.4401 27.409 25.4401Z" fill="#F9F9F9"/>
</svg>
