<svg width="40" height="40" viewBox="0 0 40 40" fill="none" xmlns="http://www.w3.org/2000/svg">
<path d="M33.4919 9.52569C28.9745 8.31932 24.4306 6.44088 20.3513 4.09352C20.1346 3.96883 19.8657 3.96883 19.6491 4.09352C15.4522 6.50832 11.1538 8.28513 6.50814 9.52569C6.20803 9.60575 6 9.87163 6 10.1749V17.0528C6 24.1355 9.35246 28.8237 12.1649 31.5094C15.1927 34.4009 18.7197 36 20.0002 36C21.2806 36 24.8076 34.4009 27.8353 31.5094C30.6477 28.8238 34 24.1355 34 17.0528V10.1749C34 9.87163 33.792 9.60575 33.4919 9.52569ZM32.6187 17.0527C32.6187 23.6679 29.4919 28.0426 26.8686 30.5477C23.8911 33.3911 20.7077 34.6536 20.0002 34.6536C19.2927 34.6536 16.1091 33.3911 13.1316 30.5477C10.5083 28.0425 7.38135 23.6679 7.38135 17.0527V10.6859C11.8239 9.4565 15.9612 7.74082 20.0003 5.45314C23.9386 7.68013 28.2823 9.48113 32.6187 10.6856V17.0527Z" fill="#F9F9F9"/>
<path d="M13.8783 10.6106C13.7385 10.2646 13.3375 10.0947 12.9825 10.231C11.7487 10.7048 10.4824 11.141 9.21862 11.5273C8.93063 11.6154 8.73466 11.8754 8.73466 12.1696V14.769C8.73466 15.1408 9.04394 15.4421 9.4253 15.4421C9.80666 15.4421 10.1159 15.1408 10.1159 14.769V12.6615C11.2496 12.304 12.3821 11.9086 13.4889 11.4835C13.8438 11.3473 14.0182 10.9565 13.8783 10.6106Z" fill="#F9F9F9"/>
<path d="M15.1903 10.7382C15.283 10.7382 15.3771 10.72 15.4673 10.6817L15.48 10.6763C15.8294 10.527 15.9868 10.1306 15.8336 9.79015C15.6804 9.44959 15.2713 9.29553 14.9223 9.44465L14.9111 9.44934C14.5615 9.59815 14.4036 9.99428 14.5563 10.3349C14.6696 10.5878 14.9239 10.7382 15.1903 10.7382Z" fill="#F9F9F9"/>
<path d="M28.229 25.7052C27.9098 25.5019 27.4818 25.5893 27.273 25.9005C26.7038 26.7495 26.0362 27.5625 25.2882 28.3167C24.6731 28.9368 24.0066 29.5148 23.3071 30.0345C23.0039 30.2599 22.9455 30.6822 23.1767 30.9779C23.3127 31.1516 23.5184 31.243 23.7264 31.243C23.8725 31.243 24.0196 31.1981 24.1447 31.1051C24.8991 30.5444 25.618 29.9211 26.2812 29.2524C27.0899 28.4372 27.8126 27.5572 28.4294 26.6369C28.6381 26.3256 28.5482 25.9085 28.229 25.7052Z" fill="#F9F9F9"/>
<path d="M21.703 31.0901L21.6634 31.1129C21.3333 31.2992 21.2205 31.711 21.4116 32.0326C21.5397 32.2483 21.7715 32.3686 22.01 32.3686C22.1273 32.3686 22.2465 32.3395 22.3553 32.2779L22.401 32.2517C22.7302 32.0638 22.8408 31.6515 22.648 31.3307C22.4551 31.01 22.032 30.9025 21.703 31.0901Z" fill="#F9F9F9"/>
<path d="M15.2925 18.6262C14.8684 18.2128 14.3044 17.9853 13.7046 17.9853C13.1047 17.9853 12.5407 18.2129 12.1164 18.6262C11.2409 19.4797 11.2409 20.8685 12.1164 21.7219L16.1946 25.6965C16.6187 26.1098 17.1827 26.3373 17.7826 26.3373C18.3825 26.3373 18.9465 26.1098 19.3707 25.6964L27.8842 17.3988C28.7597 16.5451 28.7597 15.1565 27.8841 14.3033C27.4599 13.89 26.8959 13.6625 26.296 13.6625C25.6961 13.6625 25.1321 13.89 24.7079 14.3033L17.7826 21.053L15.2925 18.6262ZM25.6847 15.2553C25.8479 15.0963 26.0651 15.0087 26.296 15.0087C26.5272 15.0087 26.7442 15.0963 26.9075 15.2553C27.2445 15.5838 27.2445 16.1184 26.9074 16.447L18.394 24.7445C18.2308 24.9035 18.0136 24.9911 17.7826 24.9911C17.5516 24.9911 17.3344 24.9035 17.1712 24.7445L13.0931 20.77C12.756 20.4414 12.756 19.9068 13.093 19.5783C13.2563 19.4193 13.4735 19.3316 13.7045 19.3316C13.9356 19.3316 14.1526 19.4191 14.3158 19.5782L17.2942 22.4811C17.4238 22.6073 17.5994 22.6782 17.7826 22.6782C17.9658 22.6782 18.1413 22.6073 18.2708 22.4811L25.6847 15.2553Z" fill="#F9F9F9"/>
</svg>
