<svg width="40" height="40" viewBox="0 0 40 40" fill="none" xmlns="http://www.w3.org/2000/svg">
<path d="M10.3235 28.0426C9.89977 28.0426 9.49242 28.1467 9.13102 28.3422C7.22727 25.9398 6.18234 22.9555 6.18234 19.8981C6.18234 12.3249 12.4409 6.16392 20.1339 6.16392C21.0691 6.16392 22.0039 6.25553 22.9124 6.43625C23.232 6.49991 23.5442 6.29622 23.6089 5.98114C23.6735 5.66607 23.4666 5.35918 23.1465 5.2953C22.1612 5.09934 21.1477 5 20.1339 5C16.0916 5 12.291 6.54969 9.43261 9.36355C6.57422 12.1774 5 15.9188 5 19.8981C5 23.2455 6.15462 26.5122 8.25674 29.131C7.98609 29.5291 7.84061 29.9969 7.84061 30.4868C7.84061 31.1397 8.09901 31.7535 8.56802 32.215C9.0368 32.6767 9.6603 32.931 10.3235 32.931C10.9867 32.931 11.6102 32.6767 12.0792 32.215C12.5482 31.7535 12.8064 31.1395 12.8064 30.4866C12.8064 29.8339 12.5482 29.2199 12.0792 28.7584C11.6102 28.2967 10.9867 28.0426 10.3235 28.0426ZM11.2431 31.392C10.9976 31.6339 10.6708 31.7671 10.3235 31.7671C9.9762 31.7671 9.64968 31.6339 9.40397 31.392C9.15827 31.1502 9.02294 30.8287 9.02294 30.4868C9.02294 30.1447 9.15827 29.8232 9.40397 29.5814C9.64944 29.3395 9.9762 29.2065 10.3235 29.2065C10.6708 29.2065 10.9974 29.3397 11.2431 29.5814C11.4888 29.8232 11.6241 30.1447 11.6241 30.4868C11.6241 30.8287 11.4888 31.1502 11.2431 31.392Z" fill="#F9F9F9"/>
<path d="M31.738 10.8683C32.3816 9.9192 32.2782 8.62161 31.4269 7.78482C30.9572 7.32334 30.3328 7.06897 29.6686 7.06897C29.0044 7.06897 28.38 7.32334 27.9103 7.78482C27.4406 8.24652 27.182 8.86031 27.182 9.51319C27.182 10.1661 27.4406 10.7799 27.9103 11.2416C28.38 11.7033 29.0044 11.9574 29.6686 11.9574C30.093 11.9574 30.5009 11.8533 30.8629 11.6578C32.7694 14.0604 33.8159 17.0445 33.8159 20.1019C33.8159 27.6751 27.5481 33.8361 19.8437 33.8361C18.9163 33.8361 17.989 33.7463 17.0877 33.569C16.7672 33.506 16.4552 33.7104 16.3909 34.0254C16.3268 34.3407 16.5347 34.6472 16.8553 34.7104C17.8328 34.9025 18.8384 35 19.8437 35C23.892 35 27.6982 33.4503 30.5608 30.6364C33.4235 27.8226 35 24.0812 35 20.1019C35 16.7542 33.8434 13.4873 31.738 10.8683ZM28.7477 10.4186C28.5016 10.1768 28.3661 9.85532 28.3661 9.51319C28.3661 9.17129 28.5016 8.84985 28.7477 8.60797C28.9935 8.3661 29.3208 8.23288 29.6686 8.23288C30.0164 8.23288 30.3437 8.3661 30.5897 8.60797C31.0974 9.10718 31.0974 9.91942 30.5897 10.4186C30.3437 10.6603 30.0164 10.7935 29.6686 10.7935C29.3206 10.7935 28.9935 10.6603 28.7477 10.4186Z" fill="#F9F9F9"/>
<path d="M17.5374 30.2653C17.5374 30.5949 17.8048 30.8621 18.1342 30.8621H21.8656C22.1952 30.8621 22.4624 30.5949 22.4624 30.2653V29.1082C23.247 28.897 23.9972 28.586 24.7021 28.1799L25.5189 28.9968C25.6308 29.1087 25.7826 29.1716 25.9411 29.1716C26.0991 29.1716 26.2511 29.1087 26.363 28.9965L29.0004 26.357C29.2333 26.1239 29.2333 25.746 29.0004 25.5131L28.1845 24.6971C28.5906 23.9921 28.9016 23.2419 29.1128 22.4572H30.2653C30.5949 22.4572 30.8621 22.19 30.8621 21.8604V18.1287C30.8621 17.799 30.5949 17.5318 30.2653 17.5318H29.1126C28.9014 16.7473 28.5906 15.9971 28.1845 15.2921L28.996 14.4806C29.1079 14.3687 29.1708 14.2167 29.1708 14.0584C29.1706 13.9001 29.1077 13.7481 28.9958 13.6362L26.3563 10.9986C26.1234 10.7657 25.7455 10.7657 25.5124 10.9988L24.7021 11.8094C23.9972 11.4033 23.247 11.0923 22.4624 10.8811V9.73475C22.4624 9.4051 22.1952 9.13793 21.8656 9.13793H18.1342C17.8048 9.13793 17.5374 9.4051 17.5374 9.73475V10.8813C16.753 11.0923 16.0028 11.4033 15.2979 11.8094L14.4874 10.9988C14.2545 10.7659 13.8766 10.7657 13.6435 10.9986L11.0042 13.6364C10.8921 13.7483 10.8292 13.9001 10.8292 14.0584C10.8292 14.2167 10.8921 14.3687 11.004 14.4806L11.8155 15.2921C11.4094 15.9971 11.0984 16.7471 10.8872 17.5318H9.7368C9.40718 17.5318 9.14003 17.799 9.14003 18.1284L9.13793 21.8602C9.1377 22.0185 9.20064 22.1705 9.31253 22.2824C9.42443 22.3943 9.57618 22.4572 9.7347 22.4572H10.8872C11.0984 23.2419 11.4094 23.9921 11.8155 24.6971L10.9996 25.5131C10.7667 25.746 10.7664 26.1239 10.9996 26.357L13.637 28.9965C13.7489 29.1085 13.9006 29.1716 14.0589 29.1716C14.2172 29.1716 14.3692 29.1087 14.4811 28.9968L15.2977 28.1799C16.0028 28.586 16.753 28.897 17.5374 29.1082V30.2653ZM15.5317 26.9247C15.2956 26.772 14.9848 26.8051 14.7858 27.004L14.0592 27.7306L12.2654 25.9353L12.9913 25.2091C13.1901 25.0102 13.2232 24.6995 13.0705 24.4633C12.5295 23.6259 12.149 22.7081 11.9402 21.735C11.881 21.4601 11.6381 21.2636 11.3567 21.2636H10.3317L10.3331 18.7255H11.3567C11.6381 18.7255 11.881 18.5292 11.9402 18.2541C12.149 17.2812 12.5295 16.3634 13.0705 15.526C13.2232 15.2898 13.1901 14.979 12.9913 14.7802L12.27 14.0586L14.0652 12.2647L14.7858 12.9855C14.9848 13.1844 15.2953 13.2173 15.5317 13.0648C16.3688 12.5237 17.2866 12.1432 18.2596 11.9343C18.5344 11.8751 18.7309 11.632 18.7309 11.3508V10.3316H21.2688V11.3506C21.2688 11.632 21.4651 11.8751 21.7402 11.9341C22.713 12.1432 23.6309 12.5235 24.468 13.0646C24.7042 13.2173 25.0149 13.1844 25.2138 12.9853L25.9346 12.2647L27.7297 14.0586L27.0085 14.7799C26.8094 14.979 26.7766 15.2898 26.9292 15.526C27.4703 16.3634 27.8505 17.2812 28.0596 18.2541C28.1186 18.5292 28.3617 18.7255 28.6431 18.7255H29.6685V21.2636H28.6431C28.3617 21.2636 28.1188 21.4601 28.0596 21.735C27.8507 22.7078 27.4703 23.6259 26.9292 24.4631C26.7766 24.6995 26.8097 25.0102 27.0085 25.2091L27.7344 25.9351L25.9406 27.7304L25.214 27.004C25.0149 26.8049 24.7042 26.772 24.468 26.9247C23.6307 27.4658 22.713 27.846 21.7402 28.0552C21.4651 28.1144 21.2688 28.3573 21.2688 28.6387V29.6684H18.7309V28.6387C18.7309 28.3575 18.5344 28.1144 18.2596 28.0552C17.2868 27.8463 16.3691 27.4658 15.5317 26.9247Z" fill="#F9F9F9"/>
<path d="M24.6552 20C24.6552 17.4331 22.5669 15.3448 20 15.3448C17.4331 15.3448 15.3448 17.4331 15.3448 20C15.3448 22.5669 17.4331 24.6552 20 24.6552C22.5669 24.6552 24.6552 22.5669 24.6552 20ZM16.4716 20C16.4716 18.0543 18.0543 16.4716 20 16.4716C21.9457 16.4716 23.5284 18.0546 23.5284 20C23.5284 21.9454 21.9457 23.5284 20 23.5284C18.0543 23.5284 16.4716 21.9457 16.4716 20Z" fill="#F9F9F9"/>
<path d="M25.1724 7.06897C25.3086 7.06897 25.4419 7.01364 25.5381 6.91752C25.6343 6.82079 25.6897 6.68752 25.6897 6.55142C25.6897 6.41613 25.6345 6.28265 25.5381 6.18593C25.4419 6.08981 25.3086 6.03448 25.1724 6.03448C25.0358 6.03448 24.9031 6.08981 24.8069 6.18593C24.7105 6.28265 24.6552 6.41552 24.6552 6.55142C24.6552 6.68793 24.7105 6.82079 24.8069 6.91752C24.9031 7.01364 25.0358 7.06897 25.1724 7.06897Z" fill="#F9F9F9"/>
<path d="M14.8276 32.931C14.6916 32.931 14.5581 32.9864 14.4619 33.0826C14.3657 33.1787 14.3103 33.3123 14.3103 33.4483C14.3103 33.5849 14.3657 33.7178 14.4619 33.814C14.5581 33.9102 14.6916 33.9655 14.8276 33.9655C14.9636 33.9655 15.0971 33.9102 15.1933 33.814C15.2895 33.7178 15.3448 33.5843 15.3448 33.4483C15.3448 33.3123 15.2895 33.1787 15.1933 33.0826C15.0971 32.9864 14.9636 32.931 14.8276 32.931Z" fill="#F9F9F9"/>
</svg>
