<svg width="35" height="35" viewBox="0 0 35 35" fill="none" xmlns="http://www.w3.org/2000/svg">
<path d="M7.82408 23.1367H5.04652C3.59513 18.7815 3.4965 13.988 5.04448 9.47842H7.94902C8.71463 7.96887 9.7346 6.5746 10.9888 5.34768L6.5576 1C-2.91389 10.2489 -1.45696 24.0488 6.65799 32C6.65799 32 11.069 27.5959 10.9992 27.5276C9.67111 26.2307 8.60414 24.7468 7.82408 23.1367Z" fill="url(#paint0_linear_287_314)"/>
<path d="M32.8453 30.0892L33.4967 30.8853C33.2243 31.1091 32.9438 31.3271 32.663 31.5332L32.0557 30.7029C32.3215 30.5078 32.5872 30.3013 32.8453 30.0892ZM34.2734 28.7912C34.0541 29.0109 33.8282 29.2271 33.602 29.4335L34.2941 30.1945C34.532 29.9773 34.7695 29.75 35 29.519L34.2734 28.7912ZM31.2348 31.2711L31.7946 32.1343C28.874 34.0358 25.6057 35 22.0804 35C17.2614 35 12.7213 33.1834 9.23829 29.8741C8.37268 30.7259 7.69935 31.3809 7.00896 32.0513L6.65133 31.6918C0.540225 25.5482 -1.75623 16.3135 1.43789 8.10423C3.36624 3.14812 6.67695 0.279255 6.90882 0L11.9788 4.84767C11.7596 5.10064 10.0551 6.55553 8.7362 9.22358L8.59468 9.50984H5.81264C4.52482 13.5966 4.5266 17.956 5.81792 22.1644H8.47913L8.61825 22.4589C9.36172 24.0334 10.3708 25.4651 11.6175 26.7142L11.7696 26.8666L11.7687 27.0846C11.7668 27.3375 11.765 27.3772 9.97101 29.151C15.8467 34.7116 24.6978 35.5271 31.2348 31.2711ZM10.558 27.099C9.4555 25.9293 8.54071 24.6187 7.83224 23.1939H5.06862L4.95313 22.8385C4.21945 20.5796 3.84114 18.2444 3.82867 15.898C3.80627 11.686 5.00457 8.74125 5.07006 8.48046H7.96053C8.6412 7.16969 9.49851 5.95872 10.5153 4.87135L6.92943 1.44274C-1.80713 10.573 0.0656722 23.2536 7.02567 30.601C8.26227 29.3969 9.90806 27.7777 10.558 27.099ZM8.28446 15.9622C8.28446 8.58292 14.2764 2.57939 21.6415 2.57939C29.0066 2.57939 34.9986 8.58292 34.9986 15.9622C34.9986 23.3415 29.0066 29.345 21.6415 29.345C14.2764 29.345 8.28446 23.3416 8.28446 15.9622ZM29.7303 25.2779C29.1222 24.7475 28.4697 24.2819 27.7817 23.8852C27.5749 24.3839 27.3476 24.8602 27.1001 25.3099C26.5492 26.3106 25.9233 27.1376 25.2431 27.7775C26.9173 27.2641 28.4413 26.4029 29.7303 25.2779ZM33.9597 16.4769H29.2326C29.184 18.7806 28.8096 20.9832 28.1493 22.9112C28.976 23.3742 29.7569 23.9279 30.4789 24.5671C32.5273 22.4558 33.8306 19.6158 33.9597 16.4769ZM30.7168 7.60913C29.9662 8.30696 29.1493 8.90939 28.2802 9.40984C28.8592 11.2409 29.1873 13.3003 29.2327 15.4475H33.9597C33.8357 12.4319 32.628 9.69191 30.7168 7.60913ZM25.2431 4.14696C26.4534 5.28546 27.3363 6.86765 27.9338 8.41972C28.664 7.98399 29.3528 7.46933 29.9902 6.88042C28.6479 5.64076 27.0314 4.69524 25.2431 4.14696ZM22.1553 10.133C23.8672 10.0632 25.5165 9.64504 27.022 8.91228C26.7818 8.27313 26.5077 7.67007 26.2004 7.1117C25.0832 5.08211 23.6626 3.87251 22.1553 3.64775V10.133ZM22.1553 15.4475H28.205C28.1617 13.4725 27.8694 11.5816 27.3555 9.89519C25.7431 10.6607 23.9816 11.0943 22.1553 11.163V15.4475ZM22.1553 21.2293C23.9277 21.2965 25.6454 21.7108 27.2249 22.4394C27.82 20.6522 28.1581 18.6137 28.205 16.4769H22.1553V21.2293ZM22.1553 28.2767C23.6626 28.052 25.0832 26.8424 26.2004 24.8128C26.4435 24.3712 26.666 23.902 26.8672 23.4089C25.4011 22.7209 23.8043 22.3272 22.1553 22.2594V28.2767ZM12.8043 24.5671C13.5263 23.9279 14.3071 23.3742 15.1338 22.9112C14.4734 20.9832 14.0991 18.7806 14.0505 16.4769H9.3235C9.45255 19.6158 10.7559 22.4558 12.8043 24.5671ZM18.0401 27.7775C17.3598 27.1376 16.7339 26.3106 16.1831 25.3099C15.9355 24.8602 15.7083 24.3839 15.5015 23.8852C14.8135 24.2819 14.161 24.7475 13.5528 25.2779C14.8419 26.4029 16.3658 27.2641 18.0401 27.7775ZM21.1278 22.2593C19.4787 22.3272 17.882 22.721 16.4158 23.4088C16.6171 23.9019 16.8397 24.3712 17.0827 24.8127C18.1999 26.8423 19.6204 28.0519 21.1278 28.2767V22.2593ZM21.1278 16.4769H15.0781C15.1249 18.6137 15.4631 20.6522 16.0581 22.4395C17.6378 21.7108 19.3554 21.2966 21.1278 21.2293V16.4769ZM21.1278 11.1631C19.3015 11.0944 17.54 10.6607 15.9276 9.89526C15.4137 11.5816 15.1214 13.4725 15.0781 15.4476H21.1278V11.1631ZM17.0828 7.1117C16.7755 7.67007 16.5013 8.27313 16.2612 8.91221C17.7667 9.64497 19.4159 10.0631 21.1279 10.133V3.64768C19.6204 3.87244 18.1999 5.08211 17.0828 7.1117ZM13.293 6.88042C13.9303 7.46933 14.6191 7.98399 15.3493 8.41972C15.595 7.7816 15.8733 7.17731 16.1831 6.61448C16.7339 5.61379 17.3598 4.7868 18.0401 4.14696C16.2517 4.69524 14.6352 5.64076 13.293 6.88042ZM9.32343 15.4475H14.0505C14.0957 13.3003 14.4239 11.2409 15.003 9.40984C14.1338 8.90939 13.3169 8.30696 12.5664 7.60913C10.6552 9.69191 9.44748 12.4319 9.32343 15.4475Z" fill="#063758"/>
<defs>
<linearGradient id="paint0_linear_287_314" x1="5.5" y1="1" x2="5.5" y2="32" gradientUnits="userSpaceOnUse">
<stop offset="8.3866e-07" stop-color="#96D1F3"/>
<stop offset="1" stop-color="#CCFFF4"/>
</linearGradient>
</defs>
</svg>
