<svg width="45" height="41" viewBox="0 0 45 41" fill="none" xmlns="http://www.w3.org/2000/svg">
<path d="M40.817 0.660461H0.660492V35.0049H44.3396V4.18297C44.3396 2.23758 42.7624 0.660461 40.817 0.660461Z" fill="url(#paint0_linear_287_305)"/>
<path d="M40.817 7.70547H38.1751V40.2886H40.817C42.7624 40.2886 44.3395 38.7115 44.3395 36.7661V4.18297C44.3395 6.12836 42.7624 7.70547 40.817 7.70547Z" fill="white"/>
<path d="M4.00681 6.64871H12.8131V14.5743H4.00681V6.64871Z" fill="white"/>
<path d="M19.5058 32.363C23.1535 32.363 26.1105 29.406 26.1105 25.7583C26.1105 22.1106 23.1535 19.1536 19.5058 19.1536C15.8582 19.1536 12.9011 22.1106 12.9011 25.7583C12.9011 29.406 15.8582 32.363 19.5058 32.363Z" fill="white"/>
<path d="M35.0048 14.5744H26.1986V12.637C26.1986 10.7867 27.3404 9.20403 28.9574 8.55245C28.611 8.16348 28.4001 7.65096 28.4001 7.08903V6.2084C28.4001 4.99252 29.3858 4.00684 30.6017 4.00684C31.8176 4.00684 32.8033 4.99252 32.8033 6.2084V7.08903C32.8033 7.65096 32.5925 8.16339 32.246 8.55245C33.863 9.20403 35.0048 10.7867 35.0048 12.637V14.5744Z" fill="white"/>
<path d="M40.817 0H0V35.6654H37.5147V40.9491H40.817C43.1235 40.9491 45 39.0726 45 36.7661V4.18297C45 1.87653 43.1235 0 40.817 0ZM43.6791 36.7661C43.6791 38.3443 42.3951 39.6282 40.817 39.6282H38.8356V8.36595C40.1065 8.23201 41.9705 8.8362 43.6791 7.23082V36.7661ZM40.817 7.04501H37.5147V34.3444H1.32094V1.32094H40.817C42.3951 1.32094 43.6791 2.6048 43.6791 4.18297C43.6791 5.76114 42.3951 7.04501 40.817 7.04501ZM33.1993 8.28872C33.5834 7.46031 33.4288 6.83877 33.4638 6.20842C33.4638 4.63024 32.1798 3.34638 30.6018 3.34638C29.0237 3.34638 27.7397 4.63024 27.7397 6.20842C27.7748 6.83965 27.6227 7.46586 28.0043 8.28872C27.3032 8.70561 26.7241 9.27766 26.3037 9.95108H13.4736V5.98826H10.8317V5.59198C10.8317 4.25668 9.74536 3.17025 8.40998 3.17025C7.0746 3.17025 5.98826 4.25668 5.98826 5.59198V5.98826H3.34638V15.2348H13.4736V11.272H18.8454V18.5245C15.1479 18.8595 12.2407 21.9751 12.2407 25.7583C12.2407 29.7643 15.4998 33.0235 19.5059 33.0235C23.5119 33.0235 26.771 29.7643 26.771 25.7583C26.771 21.9751 23.8638 18.8595 20.1663 18.5245V11.272H25.7236C25.4283 12.3369 25.5799 12.9505 25.5382 15.2348H35.6654C35.4678 13.9735 36.538 10.274 33.1993 8.28872ZM7.3092 5.59198C7.3092 4.98496 7.80296 4.49119 8.40998 4.49119C9.017 4.49119 9.51076 4.98496 9.51076 5.59198V5.98826H7.3092V5.59198ZM12.1526 13.9139H4.66732V7.3092H5.98826V9.11448H7.3092V7.3092H9.51076V9.11448H10.8317V7.3092H12.1526V13.9139ZM25.4501 25.7583C25.4501 29.036 22.7836 31.7025 19.5059 31.7025C16.2282 31.7025 13.5616 29.036 13.5616 25.7583C13.5616 22.4806 16.2282 19.8141 19.5059 19.8141C22.7836 19.8141 25.4501 22.4806 25.4501 25.7583ZM29.0607 6.20842C29.0607 5.3587 29.752 4.66732 30.6018 4.66732C31.4515 4.66732 32.1429 5.3587 32.1429 6.20842V7.08904C32.1429 7.93876 31.4515 8.63014 30.6018 8.63014C29.752 8.63014 29.0607 7.93876 29.0607 7.08904V6.20842ZM34.3444 13.9139H26.8591C26.9495 13.448 26.3164 10.6811 28.8338 9.33728C29.865 10.1499 31.3235 10.1617 32.3696 9.33728C34.874 10.6741 34.2634 13.4965 34.3444 13.9139ZM20.1663 21.0029V22.2798H21.7074V23.6008H18.7133C18.3006 23.6008 17.9648 23.9366 17.9648 24.3493C17.9648 24.7621 18.3006 25.0978 18.7133 25.0978H20.2984C21.4396 25.0978 22.3679 26.0262 22.3679 27.1673C22.3679 28.3084 21.4396 29.2368 20.2984 29.2368H20.1663V30.5137H18.8454V29.2368H17.3043V27.9159H20.2984C20.7112 27.9159 21.047 27.5801 21.047 27.1673C21.047 26.7546 20.7112 26.4188 20.2984 26.4188H18.7133C17.5722 26.4188 16.6438 25.4904 16.6438 24.3493C16.6438 23.2082 17.5722 22.2798 18.7133 22.2798H18.8454V21.0029H20.1663Z" fill="#063758"/>
<defs>
<linearGradient id="paint0_linear_287_305" x1="22.5" y1="0.660461" x2="22.5" y2="35.0049" gradientUnits="userSpaceOnUse">
<stop offset="8.3866e-07" stop-color="#96D1F3"/>
<stop offset="1" stop-color="#CCFFF4"/>
</linearGradient>
</defs>
</svg>
