<svg width="36" height="36" viewBox="0 0 36 36" fill="none" xmlns="http://www.w3.org/2000/svg">
<rect x="1" y="9" width="34" height="18" fill="url(#paint0_linear_360_12)"/>
<rect x="20" y="14" width="10" height="9" fill="white"/>
<path d="M35.4 6C35.7314 6 36 5.73141 36 5.4V3C35.9979 1.34391 34.6561 0.00210937 33 0H7.8C6.14391 0.00210937 4.80211 1.34391 4.8 3V7.8H1.8C0.806016 7.8 0 8.60602 0 9.6V26.4C0 27.394 0.806016 28.2 1.8 28.2H4.8V30H0.6C0.268594 30 0 30.2686 0 30.6V33C0.00210937 34.6561 1.34391 35.9979 3 36H28.2C29.8561 35.9979 31.1979 34.6561 31.2 33V28.2H34.2C35.194 28.2 36 27.394 36 26.4V9.6C36 8.60602 35.194 7.8 34.2 7.8H31.2V6H35.4ZM34.8 3V4.8H31.2V3C31.2 2.00602 32.006 1.2 33 1.2C33.994 1.2 34.8 2.00602 34.8 3ZM3 34.8C2.00602 34.8 1.2 33.994 1.2 33V31.2H25.2V33C25.2023 33.6513 25.4184 34.2839 25.8155 34.8H3ZM30 33C30 33.994 29.194 34.8 28.2 34.8C27.206 34.8 26.4 33.994 26.4 33V30.6C26.4 30.2686 26.1314 30 25.8 30H6V28.2H30V33ZM34.8 9.6V26.4C34.8 26.7314 34.5314 27 34.2 27H1.8C1.46859 27 1.2 26.7314 1.2 26.4V9.6C1.2 9.26859 1.46859 9 1.8 9H34.2C34.5314 9 34.8 9.26859 34.8 9.6ZM6 7.8V3C6 2.00602 6.80602 1.2 7.8 1.2H30.6155C30.2184 1.71609 30.0023 2.34867 30 3V7.8H6Z" fill="black"/>
<path d="M4.8 12.6H6V13.8H4.8V12.6Z" fill="black"/>
<path d="M6.6 12.6H13.8V13.8H6.6V12.6Z" fill="black"/>
<path d="M14.4 12.6H18V13.8H14.4V12.6Z" fill="black"/>
<path d="M4.8 15H18V16.2H4.8V15Z" fill="black"/>
<path d="M4.8 17.4H18V18.6H4.8V17.4Z" fill="black"/>
<path d="M4.8 19.8H18V21H4.8V19.8Z" fill="black"/>
<path d="M4.8 22.2H7.2V23.4H4.8V22.2Z" fill="black"/>
<path d="M7.8 22.2H18V23.4H7.8V22.2Z" fill="black"/>
<path d="M19.8 23.4H30.6C30.9314 23.4 31.2 23.1314 31.2 22.8V13.2C31.2 12.8686 30.9314 12.6 30.6 12.6H19.8C19.4686 12.6 19.2 12.8686 19.2 13.2V22.8C19.2 23.1314 19.4686 23.4 19.8 23.4ZM30 22.2H20.4V18.6H30V22.2ZM20.4 13.8H30V17.4H20.4V13.8Z" fill="black"/>
<defs>
<linearGradient id="paint0_linear_360_12" x1="18" y1="9" x2="18" y2="27" gradientUnits="userSpaceOnUse">
<stop offset="8.3866e-07" stop-color="#96D1F3"/>
<stop offset="1" stop-color="#CCFFF4"/>
</linearGradient>
</defs>
</svg>
