<svg width="42" height="42" viewBox="0 0 42 42" fill="none" xmlns="http://www.w3.org/2000/svg">
<path d="M21 40.7C31.88 40.7 40.7 31.88 40.7 21C40.7 10.12 31.88 1.3 21 1.3C10.12 1.3 1.3 10.12 1.3 21C1.3 31.88 10.12 40.7 21 40.7Z" fill="white" stroke="#063758" stroke-width="1.4"/>
<path d="M22.8462 30.875H22.3462V31.375V34.5H19.6538V31.375V30.875H19.1538H15.3462V28.125H23.2154C24.6525 28.125 25.8077 26.9406 25.8077 25.5C25.8077 24.0594 24.6525 22.875 23.2154 22.875H18.7846C15.8784 22.875 13.5 20.4707 13.5 17.5C13.5 14.5293 15.8784 12.125 18.7846 12.125H19.1538H19.6538V11.625V8.5H22.3462V11.625V12.125H22.8462H26.6538V14.875H18.7846C17.3475 14.875 16.1923 16.0594 16.1923 17.5C16.1923 18.9406 17.3475 20.125 18.7846 20.125H23.2154C26.1216 20.125 28.5 22.5293 28.5 25.5C28.5 28.4707 26.1216 30.875 23.2154 30.875H22.8462Z" fill="url(#paint0_linear_287_327)" stroke="#063758"/>
<defs>
<linearGradient id="paint0_linear_287_327" x1="21" y1="8" x2="21" y2="35" gradientUnits="userSpaceOnUse">
<stop offset="8.3866e-07" stop-color="#96D1F3"/>
<stop offset="1" stop-color="#CCFFF4"/>
</linearGradient>
</defs>
</svg>
