<svg width="47" height="37" viewBox="0 0 47 37" fill="none" xmlns="http://www.w3.org/2000/svg">
<path d="M46.5502 23.1417C45.0265 21.0085 42.4894 20.4007 40.2368 21.6295L32.565 25.8141C32.2498 24.5579 31.1115 23.6247 29.7588 23.6247H23.5154C23.1472 22.881 22.3796 21.4645 21.6263 20.9078C17.1702 16.8792 9.42555 20.4797 8.19571 21.0918H6.01606V19.3088H0V20.6865H4.63833V31.249H0V32.6268H6.01606V30.8376H10.0442L27.2262 36.2733L46.9999 23.7717L46.5502 23.1417ZM27.0313 34.7666L10.3585 29.4921L10.2571 29.4599H6.01606V22.4695H8.53031L8.68048 22.3908C8.76002 22.3492 16.6909 18.2597 20.7267 21.9521L20.7602 21.9827L20.7973 22.0086C21.2722 22.3402 22.0527 23.7242 22.4552 24.601L22.6396 25.0025H29.7588C30.5944 25.0025 31.2743 25.6824 31.2743 26.518C31.2743 27.3537 30.5944 28.0335 29.7588 28.0335H20.3903V29.4112H29.7588C31.0415 29.4112 32.1312 28.5719 32.5094 27.4139L40.8966 22.839C42.331 22.0567 43.8749 22.2925 44.9861 23.4149L27.0313 34.7666ZM22.853 6.1079C22.853 4.91774 23.8213 3.94947 25.0115 3.94947H25.1492V2.61767H26.5269V3.94947H28.1343V5.32719H25.0115C24.581 5.32719 24.2307 5.67741 24.2307 6.1079C24.2307 6.5384 24.581 6.88861 25.0115 6.88861H26.6647C27.8549 6.88861 28.8232 7.85688 28.8232 9.04704C28.8232 10.2372 27.8549 11.2055 26.6647 11.2055H26.5269V12.5373H25.1492V11.2055H23.5419V9.82775H26.6647C27.0952 9.82775 27.4454 9.47754 27.4454 9.04704C27.4454 8.61655 27.0952 8.26634 26.6647 8.26634H25.0115C23.8213 8.26634 22.853 7.29807 22.853 6.1079ZM25.8381 15.1549C30.0163 15.1549 33.4156 11.7556 33.4156 7.57747C33.4156 3.3993 30.0163 0 25.8381 0C21.6599 0 18.2606 3.3993 18.2606 7.57747C18.2606 11.7556 21.6599 15.1549 25.8381 15.1549ZM25.8381 1.37772C29.2567 1.37772 32.0378 4.15889 32.0378 7.57747C32.0378 10.9961 29.2567 13.7772 25.8381 13.7772C22.4195 13.7772 19.6383 10.9961 19.6383 7.57747C19.6383 4.15889 22.4195 1.37772 25.8381 1.37772Z" fill="#063758"/>
</svg>
