<svg width="35" height="35" viewBox="0 0 35 35" fill="none" xmlns="http://www.w3.org/2000/svg">
<path d="M35 19.7204V15.2795L31.3587 14.0227L29.9793 10.7906L31.6385 7.40276L28.4032 4.26262L24.9127 5.87302L21.5826 4.53419L20.2877 1H15.7123L14.4174 4.53419L11.0873 5.87302L7.5968 4.26262L4.3615 7.40276L6.0207 10.7906L4.6413 14.0227L1 15.2796V19.7205L4.6413 20.9773L6.0207 24.2094L4.3615 27.5972L7.5968 30.7374L11.0873 29.127L14.4174 30.4658L15.7123 34H20.2877L21.5826 30.4658L24.9127 29.127L28.4032 30.7374L31.6385 27.5972L29.9793 24.2094L31.3587 20.9773L35 19.7204Z" fill="url(#paint0_linear_287_301)"/>
<path d="M24.7965 15.8241H23.8106C22.3949 15.8241 21.2472 16.9718 21.2472 18.3875C21.2472 19.8032 22.3949 20.9509 23.8106 20.9509H24.7965V24.303H12.9655V20.9509H11.5852C10.1696 20.9509 9.02185 19.8032 9.02185 18.3875C9.02185 16.9718 10.1696 15.8241 11.5852 15.8241H12.9655V12.472H16.3176V11.0917C16.3176 9.67602 17.4653 8.52832 18.881 8.52832C20.2967 8.52832 21.4444 9.67602 21.4444 11.0917V12.472H24.7965V15.8241Z" fill="white"/>
<path d="M4.88055 24.2947L3.16181 27.9105L7.08948 31.8383L10.7053 30.1195L13.3813 31.2279L14.7227 35H20.2773L21.6187 31.2279L24.2947 30.1195L27.9105 31.8383L31.8382 27.9105L30.1194 24.2947L31.2279 21.6187L35 20.2773V14.7227L31.2279 13.3813L30.1194 10.7053L31.8382 7.08952L27.9105 3.16173L24.2947 4.88048L21.6187 3.77211L20.2773 0H14.7227L13.3813 3.77211L10.7053 4.88048L7.08948 3.16173L3.16181 7.08952L4.88055 10.7053L3.77209 13.3813L0 14.7227V20.2773L3.77209 21.6187L4.88055 24.2947ZM1.47896 15.7664L4.88696 14.5544L6.49843 10.6641L4.94562 7.39723L7.39738 4.94545L10.6642 6.49837L14.5546 4.88679L15.7665 1.47887H19.2337L20.4456 4.88679L24.336 6.49837L27.6028 4.94545L30.0546 7.39723L28.5018 10.6641L30.1132 14.5544L33.5212 15.7664V19.2336L30.1132 20.4456L28.5018 24.3359L30.0546 27.6028L27.6028 30.0546L24.336 28.5016L20.4456 30.1132L19.2337 33.5211H15.7665L14.5546 30.1132L10.6642 28.5016L7.39738 30.0546L4.94562 27.6028L6.49843 24.3359L4.88696 20.4456L1.47896 19.2336V15.7664ZM11.1902 21.6901H11.831V25.0423H25.1408V20.2113H23.4155C22.4097 20.2113 21.5915 19.3931 21.5915 18.3873C21.5915 17.3816 22.4097 16.5634 23.4155 16.5634H25.1408V11.7324H21.7887V11.0915C21.7887 9.27037 20.3071 7.78873 18.4859 7.78873C16.6647 7.78873 15.1831 9.27037 15.1831 11.0915V11.7324H11.831V15.0845H11.1902C9.36901 15.0845 7.88738 16.5661 7.88738 18.3873C7.88738 20.2085 9.36901 21.6901 11.1902 21.6901ZM11.1902 16.5634H13.3099V13.2113H16.662V11.0915C16.662 10.0858 17.4802 9.26761 18.4859 9.26761C19.4916 9.26761 20.3098 10.0858 20.3098 11.0915V13.2113H23.6619V15.0845H23.4155C21.5943 15.0845 20.1127 16.5661 20.1127 18.3873C20.1127 20.2085 21.5943 21.6901 23.4155 21.6901H23.6619V23.5634H13.3099V20.2113H11.1902C10.1845 20.2113 9.36624 19.3931 9.36624 18.3873C9.36624 17.3816 10.1845 16.5634 11.1902 16.5634Z" fill="#063758"/>
<defs>
<linearGradient id="paint0_linear_287_301" x1="18" y1="1" x2="18" y2="34" gradientUnits="userSpaceOnUse">
<stop offset="8.3866e-07" stop-color="#96D1F3"/>
<stop offset="1" stop-color="#CCFFF4"/>
</linearGradient>
</defs>
</svg>
