<svg width="39" height="39" viewBox="0 0 39 39" fill="none" xmlns="http://www.w3.org/2000/svg">
<path d="M36.1392 11.8178H12.1989C10.9356 11.8178 9.91162 12.8418 9.91162 14.1051V31.7172C9.91162 32.9805 10.9356 34.0045 12.1989 34.0045H25.7321L33.2801 38.3885V34.0045H36.1392C37.4025 34.0045 38.4265 32.9805 38.4265 31.7172V14.1051C38.4265 12.8418 37.4025 11.8178 36.1392 11.8178Z" fill="white"/>
<path d="M24.1691 31.4123C28.8009 31.4123 32.5558 27.6574 32.5558 23.0255C32.5558 18.3936 28.8009 14.6388 24.1691 14.6388C19.5372 14.6388 15.7823 18.3936 15.7823 23.0255C15.7823 27.6574 19.5372 31.4123 24.1691 31.4123Z" fill="url(#paint0_linear_287_334)"/>
<path d="M12.1989 11.8178H17.9553V2.85924C17.9553 1.59597 16.9312 0.571945 15.668 0.571945H2.85913C1.59586 0.571945 0.571838 1.59597 0.571838 2.85924V11.3654C0.571838 12.6286 1.59586 13.6527 2.85913 13.6527H3.70924V16.7736L8.31074 13.6527H9.9566C10.1666 12.6061 11.0906 11.8178 12.1989 11.8178Z" fill="url(#paint1_linear_287_334)"/>
<path d="M24.1691 14.0668C19.2293 14.0668 15.2105 18.0856 15.2105 23.0254C15.2105 27.9652 19.2293 31.984 24.1691 31.984C29.1088 31.984 33.1276 27.9652 33.1276 23.0254C33.1276 18.0856 29.1088 14.0668 24.1691 14.0668ZM20.6027 16.0729C20.0925 16.7392 19.701 17.4847 19.3977 18.2602H17.9796C18.6802 17.3523 19.5754 16.602 20.6027 16.0729ZM17.2457 19.4039H19.0201C18.7584 20.3595 18.6019 21.3888 18.5605 22.4536H16.3752C16.4547 21.3596 16.7605 20.3276 17.2457 19.4039ZM17.2457 26.6469C16.7605 25.7232 16.4547 24.6912 16.3752 23.5972H18.5605C18.6019 24.662 18.7583 25.6913 19.0201 26.6469H17.2457ZM17.9796 27.7906H19.3978C19.6012 28.3106 19.8381 28.8007 20.109 29.2506C20.2655 29.5106 20.4305 29.7529 20.6028 29.9779C19.5754 29.4488 18.6802 28.6985 17.9796 27.7906ZM23.5972 30.7744C22.6669 30.5608 21.7921 29.8293 21.0887 28.6608C20.9238 28.387 20.7729 28.0959 20.6357 27.7906H23.5972V30.7744ZM23.5972 26.6469H20.2094C19.9222 25.7071 19.7502 24.6745 19.705 23.5972H23.5972V26.6469ZM23.5972 22.4536H19.705C19.7502 21.3763 19.9222 20.3437 20.2094 19.4039H23.5972V22.4536ZM23.5972 18.2602H20.6357C21.2161 16.9683 22.2122 15.5944 23.5972 15.2764V18.2602ZM30.3585 18.2602H28.9404C28.737 17.7402 28.5001 17.2501 28.2292 16.8002C28.0727 16.5402 27.9077 16.2979 27.7354 16.073C28.7627 16.602 29.6579 17.3523 30.3585 18.2602ZM24.7409 15.2764C25.6712 15.49 26.546 16.2215 27.2494 17.3901C27.4143 17.6638 27.5652 17.9549 27.7024 18.2602H24.7409V15.2764ZM24.7409 19.4039H28.1287C28.4159 20.3437 28.5879 21.3763 28.6331 22.4536H24.7409V19.4039ZM24.7409 23.5972H28.6331C28.5879 24.6745 28.4159 25.7071 28.1287 26.6469H24.7409V23.5972ZM27.2495 28.6608C26.546 29.8293 25.6712 30.5608 24.7409 30.7744V27.7906H27.7025C27.5652 28.0959 27.4143 28.387 27.2495 28.6608ZM27.7355 29.9779C27.9077 29.7529 28.0728 29.5107 28.2293 29.2507C28.5002 28.8008 28.7371 28.3107 28.9405 27.7907H30.3586C29.6579 28.6985 28.7627 29.4488 27.7355 29.9779ZM31.0925 26.6469H29.3181C29.5798 25.6913 29.7363 24.662 29.7776 23.5972H31.963C31.8835 24.6912 31.5777 25.7232 31.0925 26.6469ZM31.963 22.4536H29.7776C29.7363 21.3888 29.5799 20.3595 29.3181 19.4039H31.0925C31.5777 20.3276 31.8835 21.3596 31.963 22.4536ZM15.363 4.68895H3.16409V3.5453H15.363V4.68895ZM15.363 7.05248H3.16409V5.90884H15.363V7.05248ZM8.80607 8.27237H9.94972V9.41602H8.80607V8.27237ZM12.237 9.41602H11.0934V8.27237H12.237V9.41602ZM3.16409 8.27237H7.66243V9.41602H3.16409V8.27237ZM36.1392 11.2459H18.5271V2.85911C18.5271 1.28256 17.2445 0 15.6679 0H2.85911C1.28256 0 0 1.28256 0 2.85911V11.3652C0 12.9418 1.28256 14.2244 2.85911 14.2244H3.13733V17.8522L8.48631 14.2244H9.3397V31.7171C9.3397 33.2937 10.6223 34.5762 12.1988 34.5762H25.5886L33.8519 39V34.5762H36.1392C37.7158 34.5762 38.9983 33.2937 38.9983 31.7171V14.105C38.9983 12.5284 37.7158 11.2459 36.1392 11.2459ZM9.52916 13.0807H8.13506L4.28097 15.6946V13.0807H2.85911C1.91324 13.0807 1.14365 12.3111 1.14365 11.3652V2.85911C1.14365 1.91324 1.91324 1.14365 2.85911 1.14365H15.6679C16.6138 1.14365 17.3834 1.91324 17.3834 2.85911V11.2459C11.936 11.2472 11.9866 11.216 11.5341 11.3247C10.6138 11.5448 9.86227 12.2137 9.52916 13.0807ZM37.8547 31.7171C37.8547 32.663 37.0851 33.4326 36.1392 33.4326H32.7083V37.0906L25.8754 33.4326H12.1989C11.253 33.4326 10.4834 32.663 10.4834 31.7171C10.5071 13.2539 10.3867 13.9098 10.6557 13.3564C10.9451 12.7634 11.5462 12.3895 12.1989 12.3895H36.1392C37.0851 12.3895 37.8547 13.1591 37.8547 14.105V31.7171ZM11.6271 13.5331H14.4862V14.6768H12.7707V16.3923H11.6271V13.5331ZM35.5674 29.4298H36.711V32.2889H33.8519V31.1453H35.5674V29.4298ZM33.8519 13.5331H36.711V16.3923H35.5674V14.6768H33.8519V13.5331ZM12.7707 31.1453H14.4862V32.2889H11.6271V29.4298H12.7707V31.1453Z" fill="#063758"/>
<defs>
<linearGradient id="paint0_linear_287_334" x1="24.1691" y1="14.6388" x2="24.1691" y2="31.4123" gradientUnits="userSpaceOnUse">
<stop offset="8.3866e-07" stop-color="#96D1F3"/>
<stop offset="1" stop-color="#CCFFF4"/>
</linearGradient>
<linearGradient id="paint1_linear_287_334" x1="9.26355" y1="0.571945" x2="9.26355" y2="16.7736" gradientUnits="userSpaceOnUse">
<stop offset="8.3866e-07" stop-color="#96D1F3"/>
<stop offset="1" stop-color="#CCFFF4"/>
</linearGradient>
</defs>
</svg>
