<svg width="35" height="35" viewBox="0 0 35 35" fill="none" xmlns="http://www.w3.org/2000/svg">
<path d="M14.0754 13.4589V11.4041H20.9247V15.5137H27.0891V23.048H20.9247H14.0754H7.91097V13.4589H14.0754Z" fill="white"/>
<path d="M31.0617 10.1027C29.1703 10.1027 27.637 8.56948 27.637 6.67809C27.637 4.7867 29.1703 3.25343 31.0617 3.25343C32.9531 3.25343 34.4863 4.7867 34.4863 6.67809C34.4863 8.56948 32.9531 10.1027 31.0617 10.1027Z" fill="url(#paint0_linear_287_317)"/>
<path d="M31.0617 31.7466C29.1703 31.7466 27.637 30.2133 27.637 28.3219C27.637 26.4305 29.1703 24.8973 31.0617 24.8973C32.9531 24.8973 34.4863 26.4305 34.4863 28.3219C34.4863 30.2133 32.9531 31.7466 31.0617 31.7466Z" fill="url(#paint1_linear_287_317)"/>
<path d="M3.93835 10.1027C2.04696 10.1027 0.513691 8.56948 0.513691 6.67809C0.513691 4.7867 2.04696 3.25343 3.93835 3.25343C5.82974 3.25343 7.36301 4.7867 7.36301 6.67809C7.36301 8.56948 5.82974 10.1027 3.93835 10.1027Z" fill="url(#paint2_linear_287_317)"/>
<path d="M3.93835 31.7466C2.04696 31.7466 0.513691 30.2133 0.513691 28.3219C0.513691 26.4305 2.04696 24.8973 3.93835 24.8973C5.82974 24.8973 7.36301 26.4305 7.36301 28.3219C7.36301 30.2133 5.82974 31.7466 3.93835 31.7466Z" fill="url(#paint3_linear_287_317)"/>
<path d="M17.5 7.36302C15.6086 7.36302 14.0753 5.82975 14.0753 3.93836C14.0753 2.04697 15.6086 0.513702 17.5 0.513702C19.3914 0.513702 20.9247 2.04697 20.9247 3.93836C20.9247 5.82975 19.3914 7.36302 17.5 7.36302Z" fill="url(#paint4_linear_287_317)"/>
<path d="M17.5 34.4863C15.6086 34.4863 14.0753 32.9531 14.0753 31.0617C14.0753 29.1703 15.6086 27.637 17.5 27.637C19.3914 27.637 20.9247 29.1703 20.9247 31.0617C20.9247 32.9531 19.3914 34.4863 17.5 34.4863Z" fill="url(#paint5_linear_287_317)"/>
<path d="M19.0411 13.6301H18.0137V14.6575H19.0411V13.6301ZM16.9863 14.6575H15.9589V13.6301H16.9863V14.6575ZM16.9863 16.7123H15.9589V15.6849H16.9863V16.7123ZM19.0411 16.7123H18.0137V15.6849H19.0411V16.7123ZM16.9863 18.7671H15.9589V17.7397H16.9863V18.7671ZM19.0411 18.7671H18.0137V17.7397H19.0411V18.7671ZM19.0411 20.8219H18.0137V19.7945H19.0411V20.8219ZM16.9863 20.8219H15.9589V19.7945H16.9863V20.8219ZM24.5205 17.7397H25.5479V18.7671H24.5205V17.7397ZM22.4658 17.7397H23.4932V18.7671H22.4658V17.7397ZM24.5205 19.7945H25.5479V20.8219H24.5205V19.7945ZM22.4658 19.7945H23.4932V20.8219H22.4658V19.7945ZM10.4795 18.7671H9.45205V17.7397H10.4795V18.7671ZM12.5342 18.7671H11.5068V17.7397H12.5342V18.7671ZM10.4795 16.7123H9.45205V15.6849H10.4795V16.7123ZM12.5342 16.7123H11.5068V15.6849H12.5342V16.7123ZM12.5342 20.8219H11.5068V19.7945H12.5342V20.8219ZM10.4795 20.8219H9.45205V19.7945H10.4795V20.8219ZM0 28.3219C0 30.4936 1.76671 32.2603 3.93836 32.2603C5.85843 32.2603 7.46103 30.8788 7.80671 29.0578L13.5781 31.4135C13.7568 33.4208 15.447 35 17.5 35C19.5529 35 21.2432 33.4208 21.4218 31.4135L27.1933 29.0578C27.539 30.8788 29.1416 32.2603 31.0616 32.2603C33.2333 32.2603 35 30.4936 35 28.3219C35 26.1503 33.2333 24.3836 31.0616 24.3836C29.0087 24.3836 27.3185 25.9627 27.1398 27.9701L21.3684 30.3258C21.054 28.6699 19.7003 27.3787 18.0137 27.1579V23.5616H28.8014V22.5342H27.6027V15H21.4384V10.8904H18.0137V7.84212C19.7003 7.6213 21.054 6.33007 21.3684 4.67425L27.1398 7.02993C27.3185 9.03726 29.0087 10.6164 31.0616 10.6164C33.2333 10.6164 35 8.84973 35 6.67808C35 4.50644 33.2333 2.73973 31.0616 2.73973C29.1416 2.73973 27.539 4.12116 27.1933 5.94219L21.4218 3.58651C21.2432 1.57918 19.5529 0 17.5 0C15.447 0 13.7568 1.57918 13.5781 3.58651L7.80671 5.94219C7.46103 4.12116 5.85843 2.73973 3.93836 2.73973C1.76671 2.73973 0 4.50644 0 6.67808C0 8.84973 1.76671 10.6164 3.93836 10.6164C5.99137 10.6164 7.68151 9.03726 7.86021 7.02993L13.6316 4.67425C13.946 6.33007 15.2997 7.6213 16.9863 7.84212V10.8904H13.5616V12.9452H7.39726V22.5342H6.19863V23.5616H16.9863V27.1579C15.2997 27.3787 13.946 28.6699 13.6316 30.3258L7.86021 27.9701C7.68151 25.9627 5.99137 24.3836 3.93836 24.3836C1.76671 24.3836 0 26.1503 0 28.3219ZM6.84932 6.67808C6.84932 8.28322 5.54349 9.58904 3.93836 9.58904C2.33322 9.58904 1.0274 8.28322 1.0274 6.67808C1.0274 5.07295 2.33322 3.76712 3.93836 3.76712C5.54349 3.76712 6.84932 5.07295 6.84932 6.67808ZM28.1507 6.67808C28.1507 5.07295 29.4565 3.76712 31.0616 3.76712C32.6668 3.76712 33.9726 5.07295 33.9726 6.67808C33.9726 8.28322 32.6668 9.58904 31.0616 9.58904C29.4565 9.58904 28.1507 8.28322 28.1507 6.67808ZM21.4384 16.0274H26.5753V22.5342H21.4384V16.0274ZM28.1507 28.3219C28.1507 26.7168 29.4565 25.411 31.0616 25.411C32.6668 25.411 33.9726 26.7168 33.9726 28.3219C33.9726 29.9271 32.6668 31.2329 31.0616 31.2329C29.4565 31.2329 28.1507 29.9271 28.1507 28.3219ZM13.5616 22.5342H8.42466V13.9726H13.5616V22.5342ZM17.5 6.84932C15.8949 6.84932 14.589 5.54349 14.589 3.93836C14.589 2.33322 15.8949 1.0274 17.5 1.0274C19.1051 1.0274 20.411 2.33322 20.411 3.93836C20.411 5.54349 19.1051 6.84932 17.5 6.84932ZM14.589 22.5342V11.9178H20.411V22.5342H14.589ZM14.589 31.0616C14.589 29.4565 15.8949 28.1507 17.5 28.1507C19.1051 28.1507 20.411 29.4565 20.411 31.0616C20.411 32.6668 19.1051 33.9726 17.5 33.9726C15.8949 33.9726 14.589 32.6668 14.589 31.0616ZM1.0274 28.3219C1.0274 26.7168 2.33322 25.411 3.93836 25.411C5.54349 25.411 6.84932 26.7168 6.84932 28.3219C6.84932 29.9271 5.54349 31.2329 3.93836 31.2329C2.33322 31.2329 1.0274 29.9271 1.0274 28.3219Z" fill="#063758"/>
<defs>
<linearGradient id="paint0_linear_287_317" x1="31.0617" y1="3.25343" x2="31.0617" y2="10.1027" gradientUnits="userSpaceOnUse">
<stop offset="8.3866e-07" stop-color="#96D1F3"/>
<stop offset="1" stop-color="#CCFFF4"/>
</linearGradient>
<linearGradient id="paint1_linear_287_317" x1="31.0617" y1="24.8973" x2="31.0617" y2="31.7466" gradientUnits="userSpaceOnUse">
<stop offset="8.3866e-07" stop-color="#96D1F3"/>
<stop offset="1" stop-color="#CCFFF4"/>
</linearGradient>
<linearGradient id="paint2_linear_287_317" x1="3.93835" y1="3.25343" x2="3.93835" y2="10.1027" gradientUnits="userSpaceOnUse">
<stop offset="8.3866e-07" stop-color="#96D1F3"/>
<stop offset="1" stop-color="#CCFFF4"/>
</linearGradient>
<linearGradient id="paint3_linear_287_317" x1="3.93835" y1="24.8973" x2="3.93835" y2="31.7466" gradientUnits="userSpaceOnUse">
<stop offset="8.3866e-07" stop-color="#96D1F3"/>
<stop offset="1" stop-color="#CCFFF4"/>
</linearGradient>
<linearGradient id="paint4_linear_287_317" x1="17.5" y1="0.513702" x2="17.5" y2="7.36302" gradientUnits="userSpaceOnUse">
<stop offset="8.3866e-07" stop-color="#96D1F3"/>
<stop offset="1" stop-color="#CCFFF4"/>
</linearGradient>
<linearGradient id="paint5_linear_287_317" x1="17.5" y1="27.637" x2="17.5" y2="34.4863" gradientUnits="userSpaceOnUse">
<stop offset="8.3866e-07" stop-color="#96D1F3"/>
<stop offset="1" stop-color="#CCFFF4"/>
</linearGradient>
</defs>
</svg>
