<svg width="40" height="40" viewBox="0 0 40 40" fill="none" xmlns="http://www.w3.org/2000/svg">
<path d="M20 32.8906C27.1193 32.8906 32.8906 27.1193 32.8906 20C32.8906 12.8807 27.1193 7.10938 20 7.10938C12.8807 7.10938 7.10938 12.8807 7.10938 20C7.10938 27.1193 12.8807 32.8906 20 32.8906Z" fill="url(#paint0_linear_287_271)"/>
<path d="M6.36719 7.61719C7.0144 7.61719 7.53906 7.09252 7.53906 6.44531C7.53906 5.7981 7.0144 5.27344 6.36719 5.27344C5.71998 5.27344 5.19531 5.7981 5.19531 6.44531C5.19531 7.09252 5.71998 7.61719 6.36719 7.61719Z" fill="white"/>
<path d="M6.36719 34.8047C7.0144 34.8047 7.53906 34.28 7.53906 33.6328C7.53906 32.9856 7.0144 32.4609 6.36719 32.4609C5.71998 32.4609 5.19531 32.9856 5.19531 33.6328C5.19531 34.28 5.71998 34.8047 6.36719 34.8047Z" fill="white"/>
<path d="M33.7109 7.61719C34.3581 7.61719 34.8828 7.09252 34.8828 6.44531C34.8828 5.7981 34.3581 5.27344 33.7109 5.27344C33.0637 5.27344 32.5391 5.7981 32.5391 6.44531C32.5391 7.09252 33.0637 7.61719 33.7109 7.61719Z" fill="white"/>
<path d="M33.7109 34.8047C34.3581 34.8047 34.8828 34.28 34.8828 33.6328C34.8828 32.9856 34.3581 32.4609 33.7109 32.4609C33.0637 32.4609 32.5391 32.9856 32.5391 33.6328C32.5391 34.28 33.0637 34.8047 33.7109 34.8047Z" fill="white"/>
<path d="M11.5742 3.15117L11.0491 2.10352C11.4077 1.92383 11.7762 1.75297 12.1446 1.5957L12.6047 2.67352C12.2582 2.82141 11.9116 2.98211 11.5742 3.15117ZM28.9106 2.08328C28.5515 1.9043 28.1826 1.73438 27.8139 1.57805L27.3564 2.65695C27.7031 2.80398 28.0502 2.96391 28.388 3.13219L28.9106 2.08328ZM20 1.17188C22.1652 1.17188 24.2841 1.53305 26.2976 2.24539L26.6884 1.14062C24.5491 0.38375 22.2987 0 20 0C19.9999 0 19.9998 0 19.9997 0C17.6855 0 15.4211 0.388906 13.2691 1.15578L13.6626 2.25969C15.688 1.53781 17.8202 1.17188 20 1.17188ZM11.0942 37.919C11.4532 38.0978 11.8222 38.2677 12.1911 38.4241L12.6484 37.3451C12.3016 37.198 11.9545 37.0382 11.6167 36.87L11.0942 37.919ZM20 38.8281C17.8362 38.8281 15.719 38.4676 13.7072 37.7563L13.3166 38.8613C15.4541 39.6169 17.7028 40 20 40C22.316 40 24.5823 39.6105 26.7359 38.8424L26.3422 37.7387C24.3153 38.4616 22.1815 38.8281 20 38.8281ZM27.3998 37.3245L27.8602 38.4022C28.2288 38.2448 28.5973 38.0738 28.9556 37.8941L28.4303 36.8466C28.0932 37.0156 27.7465 37.1764 27.3998 37.3245ZM3.12992 28.3833C2.97867 28.0796 2.83391 27.7677 2.69961 27.4562L1.62352 27.9202C1.76633 28.2513 1.92023 28.5829 2.08102 28.9057L3.12992 28.3833ZM1.17188 20C1.17188 17.8568 1.52578 15.7591 2.22359 13.7652L1.1175 13.3781C0.376016 15.4967 0 17.7246 0 20C0 22.3389 0.396875 24.6259 1.17953 26.7973L2.28195 26.3999C1.54539 24.3563 1.17188 22.203 1.17188 20ZM3.10336 11.6722L2.05289 11.1528C1.87523 11.5121 1.70641 11.8816 1.55109 12.2512L2.63141 12.7052C2.7775 12.3577 2.93625 12.0101 3.10336 11.6722ZM36.9177 11.7137C37.0838 12.0521 37.2416 12.4002 37.3867 12.7481L38.4684 12.2971C38.3141 11.9272 38.1463 11.5572 37.9698 11.1973L36.9177 11.7137ZM38.8989 13.4251L37.7918 13.8093C38.4795 15.7908 38.8281 17.8736 38.8281 20C38.8281 22.2196 38.4493 24.3876 37.7021 26.4438L38.8036 26.8441C39.5975 24.6591 40 22.3565 40 20C40 17.7425 39.6295 15.5304 38.8989 13.4251ZM36.8905 28.3416L37.9407 28.8615C38.0863 28.5674 38.2262 28.266 38.3566 27.9658L37.2817 27.4989C37.1591 27.7814 37.0275 28.0649 36.8905 28.3416ZM33.4766 20C33.4766 27.431 27.431 33.4766 20 33.4766C12.569 33.4766 6.52344 27.431 6.52344 20C6.52344 12.569 12.569 6.52344 20 6.52344C27.431 6.52344 33.4766 12.569 33.4766 20ZM11.7237 10.9023C12.3233 11.4486 12.968 11.9293 13.6491 12.3413C13.8894 11.7277 14.16 11.1457 14.4598 10.602C14.9577 9.69922 15.5166 8.9357 16.1217 8.32211C14.4743 8.87063 12.9804 9.75813 11.7237 10.9023ZM7.70961 19.4141H12.3121C12.3627 17.3023 12.6862 15.276 13.2528 13.4684C12.4141 12.9816 11.6237 12.4012 10.8949 11.7317C9.03063 13.7828 7.84859 16.4643 7.70961 19.4141ZM11.1337 28.5229C11.8331 27.9109 12.5868 27.378 13.3829 26.9284C12.7361 25.0227 12.3665 22.8538 12.3121 20.586H7.70961C7.85445 23.6595 9.13211 26.4415 11.1337 28.5229ZM16.1217 31.6779C15.5166 31.0643 14.9578 30.3008 14.4598 29.398C14.2225 28.9677 14.0039 28.513 13.8037 28.0381C13.1654 28.4109 12.558 28.8431 11.9891 29.332C13.1888 30.3632 14.5887 31.1675 16.1217 31.6779ZM19.4141 26.381C17.8172 26.4559 16.2705 26.837 14.8459 27.4946C15.0402 27.9634 15.2535 28.4106 15.486 28.8321C16.5763 30.8089 17.9534 32.001 19.4141 32.2535V26.381ZM19.4141 20.5859H13.4841C13.5363 22.6638 13.8648 24.6464 14.4379 26.392C15.9918 25.6875 17.6763 25.2829 19.4141 25.2084V20.5859ZM19.4141 15.2602C17.6233 15.1841 15.8956 14.76 14.3088 14.0199C13.8156 15.663 13.5321 17.4978 13.4841 19.4141H19.4141V15.2602ZM19.4141 7.74648C17.9534 7.99898 16.5763 9.19117 15.486 11.1679C15.1887 11.7069 14.9225 12.2877 14.6881 12.9026C16.1534 13.6048 17.7536 14.0103 19.4141 14.0876V7.74648ZM23.8783 8.32211C24.4834 8.9357 25.0422 9.69922 25.5402 10.602C25.84 11.1457 26.1106 11.7277 26.3509 12.3413C27.032 11.9293 27.6767 11.4485 28.2763 10.9023C27.0196 9.75813 25.5257 8.87063 23.8783 8.32211ZM20.5859 14.0877C22.2464 14.0104 23.8466 13.6049 25.3119 12.9027C25.0775 12.2878 24.8112 11.707 24.514 11.168C23.4237 9.19117 22.0466 7.99906 20.5859 7.74656V14.0877ZM20.5859 19.4141H26.5159C26.4678 17.4978 26.1844 15.663 25.6911 14.0199C24.1043 14.76 22.3766 15.1841 20.5859 15.2602V19.4141H20.5859ZM20.5859 25.2084C22.3237 25.2829 24.0082 25.6875 25.5621 26.392C26.1352 24.6463 26.4638 22.6638 26.5159 20.5859H20.5859V25.2084ZM24.514 28.8321C24.7464 28.4106 24.9598 27.9634 25.1541 27.4946C23.7295 26.837 22.1828 26.4559 20.5859 26.381V32.2535C22.0466 32.001 23.4237 30.8089 24.514 28.8321ZM28.0109 29.332C27.442 28.8431 26.8345 28.411 26.1963 28.0381C25.996 28.513 25.7774 28.9677 25.5401 29.398C25.0422 30.3008 24.4833 31.0643 23.8782 31.6779C25.4113 31.1675 26.8113 30.3632 28.0109 29.332ZM32.2904 20.5859H27.6879C27.6335 22.8538 27.2639 25.0227 26.6171 26.9284C27.4132 27.378 28.1669 27.9109 28.8663 28.5228C30.8679 26.4415 32.1455 23.6595 32.2904 20.5859ZM32.2904 19.4141C32.1514 16.4643 30.9693 13.7828 29.105 11.7317C28.3763 12.4011 27.5859 12.9816 26.7471 13.4684C27.3137 15.276 27.6372 17.3023 27.6878 19.4141H32.2904ZM1.875 6.44531C1.875 3.96828 3.89016 1.95312 6.36719 1.95312C8.84422 1.95312 10.8594 3.96828 10.8594 6.44531C10.8594 8.92234 8.84422 10.9375 6.36719 10.9375C3.89016 10.9375 1.875 8.92234 1.875 6.44531ZM3.04688 6.44531C3.04688 8.27617 4.53633 9.76562 6.36719 9.76562C8.19805 9.76562 9.6875 8.27617 9.6875 6.44531C9.6875 4.61445 8.19805 3.125 6.36719 3.125C4.53633 3.125 3.04688 4.61445 3.04688 6.44531ZM29.2188 6.44531C29.2188 3.96828 31.2339 1.95312 33.7109 1.95312C36.188 1.95312 38.2031 3.96828 38.2031 6.44531C38.2031 8.92234 36.188 10.9375 33.7109 10.9375C31.2339 10.9375 29.2188 8.92234 29.2188 6.44531ZM30.3906 6.44531C30.3906 8.27617 31.8801 9.76562 33.7109 9.76562C35.5418 9.76562 37.0312 8.27617 37.0312 6.44531C37.0312 4.61445 35.5418 3.125 33.7109 3.125C31.8801 3.125 30.3906 4.61445 30.3906 6.44531ZM10.8594 33.6328C10.8594 36.1098 8.84422 38.125 6.36719 38.125C3.89016 38.125 1.875 36.1098 1.875 33.6328C1.875 31.1558 3.89016 29.1406 6.36719 29.1406C8.84422 29.1406 10.8594 31.1558 10.8594 33.6328ZM9.6875 33.6328C9.6875 31.802 8.19805 30.3125 6.36719 30.3125C4.53633 30.3125 3.04688 31.802 3.04688 33.6328C3.04688 35.4637 4.53633 36.9531 6.36719 36.9531C8.19805 36.9531 9.6875 35.4637 9.6875 33.6328ZM38.2031 33.6328C38.2031 36.1098 36.188 38.125 33.7109 38.125C31.2339 38.125 29.2188 36.1098 29.2188 33.6328C29.2188 31.1558 31.2339 29.1406 33.7109 29.1406C36.188 29.1406 38.2031 31.1558 38.2031 33.6328ZM37.0312 33.6328C37.0312 31.802 35.5418 30.3125 33.7109 30.3125C31.8801 30.3125 30.3906 31.802 30.3906 33.6328C30.3906 35.4637 31.8801 36.9531 33.7109 36.9531C35.5418 36.9531 37.0312 35.4637 37.0312 33.6328ZM4.60938 6.44531C4.60938 5.47602 5.39789 4.6875 6.36719 4.6875C7.33648 4.6875 8.125 5.47602 8.125 6.44531C8.125 7.41461 7.33648 8.20312 6.36719 8.20312C5.39789 8.20312 4.60938 7.41461 4.60938 6.44531ZM5.78125 6.44531C5.78125 6.76844 6.04406 7.03125 6.36719 7.03125C6.69031 7.03125 6.95312 6.76844 6.95312 6.44531C6.95312 6.12219 6.69031 5.85938 6.36719 5.85938C6.04406 5.85938 5.78125 6.12219 5.78125 6.44531ZM8.125 33.6328C8.125 34.6021 7.33648 35.3906 6.36719 35.3906C5.39789 35.3906 4.60938 34.6021 4.60938 33.6328C4.60938 32.6635 5.39789 31.875 6.36719 31.875C7.33648 31.875 8.125 32.6635 8.125 33.6328ZM6.95312 33.6328C6.95312 33.3097 6.69031 33.0469 6.36719 33.0469C6.04406 33.0469 5.78125 33.3097 5.78125 33.6328C5.78125 33.9559 6.04406 34.2188 6.36719 34.2188C6.69031 34.2188 6.95312 33.9559 6.95312 33.6328ZM31.9531 6.44531C31.9531 5.47602 32.7416 4.6875 33.7109 4.6875C34.6802 4.6875 35.4688 5.47602 35.4688 6.44531C35.4688 7.41461 34.6802 8.20312 33.7109 8.20312C32.7416 8.20312 31.9531 7.41461 31.9531 6.44531ZM33.125 6.44531C33.125 6.76844 33.3878 7.03125 33.7109 7.03125C34.0341 7.03125 34.2969 6.76844 34.2969 6.44531C34.2969 6.12219 34.0341 5.85938 33.7109 5.85938C33.3878 5.85938 33.125 6.12219 33.125 6.44531ZM35.4688 33.6328C35.4688 34.6021 34.6802 35.3906 33.7109 35.3906C32.7416 35.3906 31.9531 34.6021 31.9531 33.6328C31.9531 32.6635 32.7416 31.875 33.7109 31.875C34.6802 31.875 35.4688 32.6635 35.4688 33.6328ZM34.2969 33.6328C34.2969 33.3097 34.0341 33.0469 33.7109 33.0469C33.3878 33.0469 33.125 33.3097 33.125 33.6328C33.125 33.9559 33.3878 34.2188 33.7109 34.2188C34.0341 34.2188 34.2969 33.9559 34.2969 33.6328Z" fill="#063758"/>
<defs>
<linearGradient id="paint0_linear_287_271" x1="20" y1="7.10938" x2="20" y2="32.8906" gradientUnits="userSpaceOnUse">
<stop offset="8.3866e-07" stop-color="#96D1F3"/>
<stop offset="1" stop-color="#CCFFF4"/>
</linearGradient>
</defs>
</svg>
