<svg width="13" height="20" viewBox="0 0 13 20" fill="none" xmlns="http://www.w3.org/2000/svg">
<path d="M8.8303 5.45537L8.86647 5.48988C8.87778 5.47803 8.98276 5.38713 9.46654 5.38713H9.46656L11.0602 5.38658C11.0602 5.38658 11.0602 5.38658 11.0602 5.38658C11.6025 5.38657 12.05 4.97592 12.05 4.46344V1.87671C12.05 1.36507 11.6032 0.954433 11.0616 0.953571L8.69463 0.95H8.69456C7.22345 0.95 5.96833 1.40085 5.06866 2.25827C4.17275 3.11205 3.70081 4.30274 3.70081 5.69775V7.04288H1.9401C1.39763 7.04288 0.95 7.45351 0.95 7.96602V10.752C0.95 11.2644 1.39762 11.6752 1.9401 11.6752H3.70081V18.1269C3.70081 18.6394 4.14844 19.05 4.69092 19.05H7.79453C8.33699 19.05 8.78478 18.6394 8.78478 18.1269V11.675H10.948C11.4904 11.675 11.9381 11.2644 11.9381 10.7522C11.9381 10.7522 11.9381 10.7522 11.9381 10.7522L11.9393 7.96618V7.96616C11.9393 7.62979 11.7421 7.32078 11.4286 7.15809L11.4286 7.15808C11.2828 7.08248 11.114 7.04274 10.9404 7.04274H8.78478V5.99054C8.78478 5.81301 8.79764 5.69467 8.815 5.61636C8.83251 5.53732 8.85366 5.50339 8.86658 5.48977L8.8303 5.45537ZM8.8303 5.45537C8.78668 5.50137 8.73478 5.63142 8.73478 5.99054V7.04274L11.0615 1.00357C11.579 1.00439 12 1.39606 12 1.87671V4.46344C12 4.94492 11.5784 5.33658 11.0602 5.33658L9.46654 5.33713C8.98052 5.33713 8.85676 5.42763 8.8303 5.45537ZM7.54846 11.1527V17.8948H4.93698V11.1527C4.93698 10.8002 4.62953 10.5198 4.25946 10.5198H2.18617V8.19812H4.25946C4.62954 8.19812 4.93698 7.91752 4.93698 7.56516V5.69775C4.93698 4.58553 5.29782 3.68886 5.94449 3.07011C6.5914 2.45113 7.52961 2.10525 8.6936 2.10524C8.69362 2.10524 8.69365 2.10524 8.69367 2.10524L10.8138 2.10846V4.23136L9.46625 4.23189C9.46624 4.23189 9.46623 4.23189 9.46623 4.23189C9.02183 4.23189 8.36324 4.27976 7.94238 4.7226C7.59295 5.09011 7.54846 5.57678 7.54846 5.99054V7.56516C7.54846 7.91766 7.85591 8.19812 8.22599 8.19812H10.7029L10.7019 10.5198H8.22613C7.85608 10.5198 7.54846 10.8002 7.54846 11.1527Z" fill="white" stroke="#A4A4A4" stroke-width="0.1"/>
</svg>
