<svg width="19" height="19" viewBox="0 0 19 19" fill="none" xmlns="http://www.w3.org/2000/svg">
<path d="M13.8569 0H5.14313C2.30716 0 0 2.30716 0 5.14313V13.857C0 16.6928 2.30716 19 5.14313 19H13.857C16.6928 19 19 16.6928 19 13.857V5.14313C19 2.30716 16.6928 0 13.8569 0ZM17.8861 13.857C17.8861 16.0787 16.0787 17.8861 13.8569 17.8861H5.14313C2.92135 17.8861 1.11386 16.0787 1.11386 13.857V5.14313C1.11386 2.92135 2.92135 1.11386 5.14313 1.11386H13.857C16.0787 1.11386 17.8861 2.92135 17.8861 5.14313V13.857Z" fill="white"/>
<path d="M9.5 4.30483C6.63533 4.30483 4.30483 6.63533 4.30483 9.5C4.30483 12.3647 6.63533 14.6952 9.5 14.6952C12.3647 14.6952 14.6952 12.3647 14.6952 9.5C14.6952 6.63533 12.3647 4.30483 9.5 4.30483ZM9.5 13.5813C7.24966 13.5813 5.41869 11.7505 5.41869 9.5C5.41869 7.24966 7.24966 5.41869 9.5 5.41869C11.7505 5.41869 13.5813 7.24966 13.5813 9.5C13.5813 11.7505 11.7505 13.5813 9.5 13.5813Z" fill="white"/>
<path d="M14.8194 2.4598C13.9728 2.4598 13.2843 3.1485 13.2843 3.99491C13.2843 4.84147 13.9728 5.53017 14.8194 5.53017C15.666 5.53017 16.3547 4.84147 16.3547 3.99491C16.3547 3.14835 15.666 2.4598 14.8194 2.4598ZM14.8194 4.41616C14.5872 4.41616 14.3981 4.22713 14.3981 3.99491C14.3981 3.76254 14.5872 3.57366 14.8194 3.57366C15.0518 3.57366 15.2408 3.76254 15.2408 3.99491C15.2408 4.22713 15.0518 4.41616 14.8194 4.41616Z" fill="white"/>
</svg>
