<svg width="19" height="20" viewBox="0 0 19 20" fill="none" xmlns="http://www.w3.org/2000/svg">
<path d="M4.34715 5.92285H0.751753C0.348703 5.92285 0.0208278 6.23032 0.0208278 6.60828V19.3147C0.0208278 19.6925 0.348703 20 0.751753 20H4.34715C4.75004 20 5.07792 19.6925 5.07792 19.3147V6.60828C5.07792 6.23032 4.75004 5.92285 4.34715 5.92285ZM3.82646 18.8264H1.27229V7.09641H3.82646V18.8264Z" fill="white"/>
<path d="M2.54945 0C1.14358 0 0 1.07239 0 2.39059C0 3.70895 1.14358 4.78134 2.54945 4.78134C3.955 4.78134 5.09874 3.70895 5.09874 2.39059C5.09874 1.07239 3.95517 0 2.54945 0ZM2.54945 3.60779C1.83366 3.60779 1.25146 3.06183 1.25146 2.39059C1.25146 1.71951 1.83366 1.17355 2.54945 1.17355C3.26508 1.17355 3.84729 1.71951 3.84729 2.39059C3.84729 3.06168 3.26508 3.60779 2.54945 3.60779Z" fill="white"/>
<path d="M16.7059 7.41257C15.8464 6.73981 14.7537 6.38 13.6303 6.39954C12.9326 6.41159 12.2508 6.56937 11.633 6.85501V6.57761C11.633 6.21613 11.3204 5.923 10.9349 5.923H7.27411C6.88863 5.923 6.57605 6.21613 6.57605 6.57761V19.3454C6.57605 19.707 6.88863 20 7.27411 20H11.0072C11.3528 20 11.633 19.7372 11.633 19.4133V11.8008C11.633 11.1491 12.1768 10.5977 12.8713 10.5783C13.5931 10.5583 14.187 11.1029 14.187 11.7754V19.4255C14.187 19.7427 14.4613 20 14.7996 20H18.3874C18.7257 20 19 19.7427 19 19.4255V12.0081C19 10.2289 18.1638 8.55377 16.7059 7.41257ZM17.7485 18.8264H15.4386V11.7754C15.4386 10.468 14.3043 9.4043 12.91 9.4043C11.5158 9.4043 10.3815 10.468 10.3815 11.7754V18.8264H7.82751V7.09641H10.3815V7.94922H10.3823C10.3822 8.08746 10.4334 8.22632 10.5389 8.33817C10.7678 8.58078 11.1634 8.60336 11.4221 8.38852C12.0386 7.87674 12.8311 7.58713 13.6534 7.57278C14.4766 7.55814 15.2756 7.8215 15.904 8.31345C17.0764 9.23111 17.7485 10.5777 17.7485 12.0081V18.8264Z" fill="white"/>
</svg>
