<svg width="18" height="11" viewBox="0 0 18 11" fill="none" xmlns="http://www.w3.org/2000/svg">
<path d="M8.99651 7.26565L15.1694 1.1366C15.339 0.967839 15.5657 0.875 15.8074 0.875C16.0493 0.875 16.2758 0.967839 16.4457 1.1366L16.9863 1.67366C17.1564 1.84216 17.25 2.0674 17.25 2.30743C17.25 2.54745 17.1564 2.77243 16.9863 2.94106L9.63693 10.2387C9.46656 10.408 9.23891 10.5007 8.99691 10.5C8.75384 10.5007 8.52646 10.4081 8.35596 10.2387L1.01373 2.94785C0.843634 2.77922 0.75 2.55425 0.75 2.31409C0.75 2.07406 0.843634 1.84909 1.01373 1.68032L1.55434 1.1434C1.90621 0.794014 2.47901 0.794014 2.83074 1.1434L8.99651 7.26565Z" fill="#3B4B72"/>
</svg>
